<svg xmlns="http://www.w3.org/2000/svg" fill="none" viewBox="0 0 84 84">
  <defs/>
  <g style="mix-blend-mode:multiply" filter="url(#filter0_ddd)">
    <circle cx="38" cy="38" r="30" fill="#D2EFF5"/>
  </g>
  <circle cx="38" cy="38" r="30" fill="url(#paint0_radial)" fill-opacity=".5"/>
  <mask id="a" width="60" height="60" x="8" y="8" maskUnits="userSpaceOnUse">
    <circle cx="38" cy="38" r="30" fill="#C4C4C4"/>
  </mask>
  <g style="mix-blend-mode:overlay" mask="url(#a)">
    <path fill="#F1FCFF" d="M32.3 62.8c-1.7-.4-3.5-1.6-5-2.8-1.6-1.3-.7-2.8 1.3-2.3 4 1 8.7 2.8 9.6 2.8 1.3 0 3.3-.7 2.8 1.3-.5 1.9-4.4 2.1-8.7 1zM23 40.8c-1.2 0-1.4.8-1.4 1.2 0 1.2 1.3 1.5 2 1.6.4 0 1.5 0 1.5-.9 0-1-.8-1.9-2.2-1.9zM38.4 51c-.9 1.5-1.9 4.7 1.3 6.1 4 1.8.5-7.3-1.3-6z"/>
    <path fill="#B8E3ED" fill-rule="evenodd" d="M21.7 53a5.8 5.8 0 01-4-4.4c-.2-1 1.6-1.3 2.5-.7.5.4 1 .5 1.7.5 1.3-.2 3.1-1.9 5.2-3.8 2.8-2.6 6.1-5.6 9-5.6 3 0 3.8 2.2 4.6 4.4.6 1.5 1.1 3 2.3 3.9 3 2.4 11 10.7 8.5 12.9-2 1.7-6.8-4.1-9.2-7L41 51.8c-.5-.5-.2-.8.1-1 .5-.4.8-.7-2-1.5-2.3-.6-2.2-.4-2.1 0 0 .3.1.6-2.4 0s-1.3-2-.3-3c1-1.2 1.8-2.2-1-2.2s-4.3 2.2-5.7 4.5C26.2 50.8 24.8 53 22 53h-.3zM37 41.2c-1 0-1.5 3.1.6 4.7 3.3 2.5 2.8-3.8-.6-4.7zm8.2 13.6c.7.7 1.5 1.2 2.4 1.2 1.7 0 1-1.4-.4-2.8-1.7-1.8-3.6-.2-2 1.6zM35 24.5c-2.2-.4-6.9-.7-6.7 1 .3 2.2 2 3.8 3.5 3.8.8 0 1.3.7 1.8 1.4.6.8 1.1 1.6 2 1.6.7 0 1.4.2 2.1.5 1.3.3 2.6.8 4 .3.9-.3 2.1-.2 3.5 0 2.2.2 4.6.5 4.9-1.5.4-2.4-9.9-5.7-15-7.1zM30.5 26c0 .6.5 2 2.6 2.5 1.5.5 1.9 1 2.2 1.5.2.4.3.6.8.7.5 0 .8.2 1 .4.5.3 1 .7 2.7.7l2.8-.2c2-.2 3.8-.4 5.5.2 2.5 1-.6-2.8-6.6-3.8-2.5-.4-4.7-1.2-6.6-1.8-2.7-.8-4.4-1.4-4.4-.2zM37.5 16c.2-.6 1.6-1.7 5-1.7 4.3 0 11.6 4.7 14.3 7.9 1.1 1.4 2.2 1.9 3 2.2.8.4 1.3.6 1.1 2.1-.3 2.3-2.3.7-3.3-.4-3.6-1.2-11-4-12.9-5.6-1-1-2.5-1.6-4-2.2-1.7-.7-3.2-1.3-3.2-2.3zm8.8 3.7l1.3.7c3.6 1.8 5.8-.6 2.2-2.4a21.8 21.8 0 00-2.1-.9c-3-1.2-4 1-1.4 2.6z" clip-rule="evenodd"/>
    <path fill="#B8E3ED" fill-rule="evenodd" d="M52.7 30.7c0-.3 0-.7-.2-1-.9-1.9 0-4.6 1.9-3.9 2.3 1 4.5 2.6 6 5.6 1.5 3.4.8 6.6.4 9-.4 2-.7 3.2.5 3.4 2.7.5 3.6 4.1 0 3.6-1.8-.2-2.9 1.9-4 4-1 2-2.1 4.2-4 4.2-1.8 0-2-2-2-4-.2-2-.3-4-2-4.2h-.5c-6.9-2-7.9-5.8-7.8-7.3 0-1.5 1.4-2.6 3.1-2.6.8 0 1.3-.8 1.8-1.6.7-.9 1.3-1.8 2.4-1.8 2 0 4.4-.8 4.4-3.4zm2.4 1.2c0-1-.2-2-.6-2.8-.3-.8.3-1.9 1.1-1.4 2.5 1.7 4 5.7 4 9.4 0 4.7-3.2 15.5-5.2 15.5-1.4 0-1.5-2.8-1.6-5 0-1.2 0-2.1-.3-2.5-.2-.4-.5-.2-.9 0-.6.2-1.2.5-1.2-1.8 0-2 1.2-4 2.5-6.1 1-2 2.2-3.8 2.2-5.3zm-6.2 5.4c2.5.4-.5 4.7-2.1 3.3-1.6-1.3-.5-3.3 2-3.3z" clip-rule="evenodd"/>
    <path fill="#F1FCFF" d="M58.5 21.5a15 15 0 01-5.5-4.7c-1.3-2.3 1.7-4 3.8-2.6 3.5 2.4 5.6 7.3 7.1 9 2.1 2.4.7 6.5.7 8 0 1.6-.6 1.5 0 3.2.7 1.8 1.3 3.5-1-1.2s3.8-6.5-5-11.7zM61 52.8c-.4-4 .2-6.7 1.2-8.3.7-1.4 2-.5 1.8 1-.4 3.5.1 4.5.6 6 .3 1.2 0 4.7-5.4 10-6.7 6.5-17.5 9-17.5 5S62.2 62 61.1 52.8z"/>
    <path fill="#F1FCFF" fill-rule="evenodd" d="M38.6 11c-1.8 1.2-5.2 3.8-4.5 5.8.3 1.1 2.3 1.7 4.4 2.3 2.3.6 4.6 1.3 4.6 2.8.1 2.9-16.1 1.5-16.3-1.2v-1.4c0-1.5 0-1.8-1.7-2-2 0-2.8 3.2-.5 6.3 1 1.3 2.4 3 3.8 4.4 1.9 2 3.5 3.7 3.5 4.4 0 1-1.2 2-1.7 2.4-.5-.4-2-1.2-4.4-1.7-1.5-.3-1.7 0-2 .6-.3.5-.7 1-2.3 1-1.9 0-2-1.3-2-2.6 0-1 0-1.9-1-2-2-.2-4.8 4.8-4.8 9.5S16.7 66 38.9 66c17.7 0 5.8.7-2.4 1.1-5 0-15.7-1.8-18.9-8.7-1.3-2.8-2.5-4.8-3.5-6.5-2.1-3.5-3.6-5.9-4-12.2-.5-7.5 1.7-10.5 3.8-13.2l1.5-2 .7-1.2c2.5-4.1 7.4-12.2 13.1-11 2.8.6 3.3-.3 3.7-1.1.6-1 1-2 5.7 0zM28.7 20c.4.8 3.4 2.1 6 2.1 2.4 0 3.1-.7 3.1-1.4s-.6-1-9-.7zm-6 6c0 1.4.2 4 2.2 3.2 2.5-.8-.6-5-2.1-3.2zm-9 6.2c-.5.8-1 1.6-1 2.1l-.4 2.2c-.3 1.7-.8 4-.3 5 .7 1.6-4.3-6.9 2-12.1 1.1.2.4 1.5-.4 2.8zM40.7 11.4c0-.5 1-1.6 4.7-1.5 4.7 0 5 1.8 5 2.5 0 .8-2.2 1.7-5.3.4-1.4-.7-2.5-.5-3.2-.3-.8.1-1.2.2-1.2-1zm6.6-.8c-.5 0-1.4.1-1 .5.5.5 2 1.6 2.3 1.3.4-.3.8-1.8-1.3-1.8z" clip-rule="evenodd"/>
  </g>
  <defs>
    <radialGradient id="paint0_radial" cx="0" cy="0" r="1" gradientTransform="matrix(0 35 -35 0 38 38)" gradientUnits="userSpaceOnUse">
      <stop stop-color="#99C6D0"/>
      <stop offset=".6" stop-color="#99C6D0" stop-opacity=".5"/>
      <stop offset="1" stop-color="#D2EFF5" stop-opacity="0"/>
    </radialGradient>
    <filter id="filter0_ddd" width="84" height="84" x="0" y="0" color-interpolation-filters="sRGB" filterUnits="userSpaceOnUse">
      <feFlood flood-opacity="0" result="BackgroundImageFix"/>
      <feColorMatrix in="SourceAlpha" values="0 0 0 0 0 0 0 0 0 0 0 0 0 0 0 0 0 0 127 0"/>
      <feOffset dx="4" dy="4"/>
      <feGaussianBlur stdDeviation="6"/>
      <feColorMatrix values="0 0 0 0 0 0 0 0 0 0 0 0 0 0 0 0 0 0 0.25 0"/>
      <feBlend in2="BackgroundImageFix" result="effect1_dropShadow"/>
      <feColorMatrix in="SourceAlpha" values="0 0 0 0 0 0 0 0 0 0 0 0 0 0 0 0 0 0 127 0"/>
      <feOffset dx="2" dy="2"/>
      <feGaussianBlur stdDeviation="2"/>
      <feColorMatrix values="0 0 0 0 0.945833 0 0 0 0 0.990151 0 0 0 0 1 0 0 0 1 0"/>
      <feBlend in2="effect1_dropShadow" result="effect2_dropShadow"/>
      <feColorMatrix in="SourceAlpha" values="0 0 0 0 0 0 0 0 0 0 0 0 0 0 0 0 0 0 127 0"/>
      <feOffset/>
      <feGaussianBlur stdDeviation="4"/>
      <feColorMatrix values="0 0 0 0 0.945833 0 0 0 0 0.990151 0 0 0 0 1 0 0 0 1 0"/>
      <feBlend in2="effect2_dropShadow" result="effect3_dropShadow"/>
      <feBlend in="SourceGraphic" in2="effect3_dropShadow" result="shape"/>
    </filter>
  </defs>
</svg>