<svg xmlns="http://www.w3.org/2000/svg" fill-rule="evenodd" stroke-linejoin="round" stroke-miterlimit="2" clip-rule="evenodd" viewBox="0 0 60 60">
  <defs/>
  <clipPath id="a">
    <circle cx="30" cy="30" r="30"/>
  </clipPath>
  <g fill="#fff" clip-path="url(#a)">
    <path fill-opacity=".5" d="M13.7 45c-2-.6-3.6-2.3-4-4.4-.2-1 1.6-1.3 2.5-.7.5.4 1 .5 1.7.5 1.3-.2 3.1-1.9 5.2-3.8 2.8-2.6 6.1-5.6 9-5.6 3 0 3.8 2.2 4.6 4.4.6 1.5 1.1 3 2.3 3.9 3 2.4 11 10.7 8.5 12.9-2 1.7-6.8-4.1-9.2-7L33 43.8c-.5-.5-.2-.8.1-1 .5-.4.8-.7-2-1.5-2.3-.6-2.2-.4-2.1 0 0 .3.1.6-2.4 0s-1.3-2-.3-3c1-1.2 1.8-2.2-1-2.2s-4.3 2.2-5.7 4.5C18.2 42.8 16.8 45 14 45h-.3zm23.5 1.8c.7.7 1.5 1.2 2.4 1.2 1.7 0 1-1.4-.4-2.8-1.7-1.8-3.6-.2-2 1.6zm7.5-24.1c0-.3 0-.7-.2-1-.9-1.9 0-4.6 1.9-3.9 2.3 1 4.5 2.6 6 5.6 1.5 3.4.8 6.6.4 9-.4 2-.7 3.2.5 3.4 2.7.5 3.6 4.1 0 3.6-1.8-.2-2.9 1.9-4 4-1 2-2.1 4.2-4 4.2-1.8 0-2-2-2-4-.2-2-.3-4-2-4.2h-.5c-6.9-2-7.9-5.8-7.8-7.3 0-1.5 1.4-2.6 3.1-2.6.8 0 1.3-.8 1.8-1.6.7-.9 1.3-1.8 2.4-1.8 2 0 4.4-.8 4.4-3.4zm2.4 1.2c0-1-.2-2-.6-2.8-.3-.8.3-1.9 1.1-1.4 2.5 1.7 4 5.7 4 9.4 0 4.7-3.2 15.5-5.2 15.5-1.4 0-1.5-2.8-1.6-5 0-1.2 0-2.1-.3-2.5-.2-.4-.5-.2-.9 0-.6.2-1.2.5-1.2-1.8 0-2 1.2-4 2.5-6.1 1-2 2.2-3.8 2.2-5.3zM29 33.2c-.5 0-.9.8-.9 1.7 0 1 .5 2.2 1.5 3 3.3 2.5 2.8-3.8-.6-4.7zm11.9-3.9c2.5.4-.5 4.7-2.1 3.3-1.6-1.3-.5-3.3 2-3.3h.1zM27 16.5c-2.2-.4-6.9-.7-6.7 1 .3 2.2 2 3.8 3.5 3.8.8 0 1.3.7 1.8 1.4.6.8 1.1 1.6 2 1.6.7 0 1.4.2 2.1.5 1.3.3 2.6.8 4 .3.9-.3 2.1-.2 3.5 0 2.2.2 4.6.5 4.9-1.5.4-2.4-9.9-5.7-15-7.1H27zM22.5 18c0 .6.5 2 2.6 2.5 1.5.5 1.9 1 2.2 1.5.2.4.3.6.8.7.5 0 .8.2 1 .4.5.3 1 .7 2.7.7l2.8-.2c2-.2 3.8-.4 5.5.2 2.5 1-.6-2.8-6.6-3.8-2.5-.4-4.7-1.2-6.6-1.8-2.7-.8-4.4-1.4-4.4-.2zm7-10c.2-.6 1.6-1.7 5-1.7 4.3 0 11.6 4.7 14.3 7.9a6.4 6.4 0 003 2.2c.8.4 1.3.6 1.1 2.1-.3 2.3-2.3.7-3.3-.4a63 63 0 01-16.9-7.8C31 9.6 29.5 9 29.5 8zm8.8 3.7l1.3.7c3.6 1.8 5.8-.6 2.2-2.4l-2.1-.9c-3-1.2-4 1-1.4 2.6z"/>
    <path fill-opacity=".6" fill-rule="nonzero" d="M33.7 58.8l-5.2.3c-5 0-15.7-1.8-18.9-8.7-1.3-2.8-2.5-4.8-3.5-6.5-2.1-3.5-3.6-5.9-4-12.2-.5-7.5 1.7-10.5 3.8-13.2l1.5-2 .7-1.2c2.5-4.1 7.4-12.2 13.1-11 2.8.6 3.3-.3 3.7-1.1.6-1 1-2 5.5 0-1.8 1.2-5 3.7-4.3 5.6.3 1.1 2.3 1.7 4.4 2.3 2.3.6 4.6 1.3 4.6 2.8.1 2.9-16.1 1.5-16.3-1.2v-1.4c0-1.5 0-1.8-1.7-2-2 0-2.8 3.2-.5 6.3 1 1.3 2.4 3 3.8 4.4 1.9 2 3.5 3.7 3.5 4.4 0 1-1.2 2-1.7 2.4-.5-.4-2-1.2-4.4-1.7-1.5-.3-1.7 0-2 .6-.3.5-.7 1-2.3 1-1.9 0-2-1.3-2-2.6 0-1 0-1.9-1-2-2-.2-4.8 4.8-4.8 9.5S8.7 58 30.9 58h3c1.5-3.6 20.3-4.4 19.2-13.2H53c-.4-4 .2-6.7 1.2-8.3.7-1.4 2-.5 1.8 1-.4 3.5.1 4.5.6 6 .3 1.2 0 4.7-5.4 10-6.5 6.3-16.9 8.9-17.5 5.3zm-9.4-4c-1.7-.4-3.5-1.6-5-2.8-1.6-1.3-.7-2.8 1.3-2.3 4 1 8.7 2.8 9.6 2.8 1.3 0 3.3-.7 2.8 1.3-.5 1.9-4.4 2.1-8.7 1zM30.4 43c-.9 1.5-1.9 4.7 1.3 6.1 4 1.8.5-7.3-1.3-6V43zM15 32.8h-.1c-1.1 0-1.3.8-1.3 1.2 0 1.2 1.3 1.5 2 1.6.4 0 1.5 0 1.5-.9 0-1-.8-1.9-2.1-1.9zm-9.3-8.6c-.5.8-1 1.6-1 2.1l-.4 2.2c-.3 1.7-.8 4-.3 5 .7 1.6-4.3-6.9 2-12.1 1.1.2.4 1.5-.4 2.8h.1zm44.8-10.7A15 15 0 0145 8.8c-1.3-2.3 1.7-4 3.8-2.6 3.5 2.4 5.6 7.3 7.1 9 2.1 2.4.7 6.5.7 8 0 1.6-.6 1.5 0 3.2.7 1.8 1.3 3.5-1-1.2s3.8-6.5-5-11.7h-.1zM14.7 18c0 1.4.2 4 2.2 3.2 2.5-.8-.6-5-2.1-3.2h-.1zm6-6c.4.8 3.4 2.1 6 2.1 2.4 0 3.1-.7 3.1-1.4s-.6-1-9-.7h-.1zm12-8.6c0-.5 1-1.6 4.7-1.5 4.7 0 5 1.8 5 2.5 0 .8-2.2 1.7-5.3.4a4.2 4.2 0 00-3.2-.3c-.8.1-1.2.2-1.2-1v-.1zm6.6-.8c-.5 0-1.4.1-1 .5.5.5 2 1.6 2.3 1.3.4-.3.8-1.8-1.3-1.8zm-8.9.5l.2-.1v.2h-.2z"/>
  </g>
</svg>