<svg xmlns="http://www.w3.org/2000/svg" fill="none" viewBox="0 0 94 96">
  <defs/>
  <g filter="url(#filter0_ddd)" style="mix-blend-mode:multiply">
    <circle cx="44" cy="44" r="30" fill="#D2EFF5"/>
  </g>
  <g filter="url(#filter1_ii)">
    <circle cx="44" cy="44" r="30" fill="url(#paint0_radial)" fill-opacity=".5"/>
  </g>
  <mask id="a" width="60" height="60" x="14" y="14" maskUnits="userSpaceOnUse">
    <circle cx="44" cy="44" r="30" fill="#C4C4C4"/>
  </mask>
  <g mask="url(#a)" style="mix-blend-mode:overlay">
    <path fill="#A3D5E0" fill-rule="evenodd" d="M31.8 59.8C36 61.4 43 64 45.5 61c1.8-2 3.3-4.5 4.7-7 2.2-3.6 4.3-7.3 7.7-9.7.7-.5 1.4-1 2-1.8.3-.4 1.2-.8 3.1 0 2.4 1 3.7-17.8-13.1-20.6-14-2.3-16.1 0-19.6 4L28 28.5c-6 5.7-16.5 23.5.5 30.1a11.8 11.8 0 001.2.4l2.2.8zm-7.5-22.6c-1 .6-2.6 2.2-1.9 4.1l.3.6c.9 2.1 1.6 3.8.2 5l-.2.2c-1.6 1.3-4.2 3.5 8.5 11.2l1.5.7c3 1.3 9.3 4 11 1 1.3-2.4 0-3.6-1.6-5.2-1.9-1.8-4.3-4-4.3-8.9 0-5.9 1.5-4.8 3.3-3.4 1 .7 2.2 1.6 3.2 1.3 1.4-.4 1.2-2 1-3.6-.2-1.8-.4-3.6 1.3-4.1 2-.6 3.8.7 5.5 2 1.2.8 2.2 1.5 3 1.3 1-.2 1.4-.8 1.7-1.2.3-.4.5-.7 1.1-.5.6.1 1 .9 1.6 1.6.8 1.1 1.7 2.3 2.6 1.5 1.4-1.4.3-15-11.1-18-8.2-2.2-11 3-13 7-.9 1.6-1.6 3-2.5 3.6-1 .7-2 .6-3.3.5-2-.1-4.5-.3-8 3.3z" clip-rule="evenodd"/>
    <path fill="#D2EFF5" d="M61.6 49.5a31 31 0 015-9c4.7-7.3 5.8 11.3 3 16.4-3 5.1-7 13.3-18.5 12.8-11.5-.4-11-3.3-6-2.7 5.2.6 6.2-2 6-3.8-.1-1.8 10-10.6 10.5-13.7zM38.2 33.5c1-1 1.4-2.3 1.4-3.8.4-6-4.6-8.3-9.8-5.5-6.8 3.6-8.3 8.6-8.4 11.6 0 3 1.5 5.4 5.7 5.4 4.3 0 7.5-4.1 11.1-7.7z"/>
    <path fill="#D2EFF5" d="M29 27.4a18 18 0 016.4-6c4.7.5 1.5 10.1-.5 13.4-2.6 4.3-11 5.7-11.3.8-.2-4.9 3.6-4.6 5.4-8.2zM67.3 57.4l.8-1.7c2-5-7.8-4-8 1.4-.3 4.6 4.8 4.3 7.2.3z"/>
  </g>
  <defs>
    <filter id="filter0_ddd" width="96" height="96" x="0" y="0" color-interpolation-filters="sRGB" filterUnits="userSpaceOnUse">
      <feFlood flood-opacity="0" result="BackgroundImageFix"/>
      <feColorMatrix in="SourceAlpha" values="0 0 0 0 0 0 0 0 0 0 0 0 0 0 0 0 0 0 127 0"/>
      <feOffset dx="4" dy="4"/>
      <feGaussianBlur stdDeviation="9"/>
      <feColorMatrix values="0 0 0 0 0 0 0 0 0 0 0 0 0 0 0 0 0 0 0.25 0"/>
      <feBlend in2="BackgroundImageFix" result="effect1_dropShadow"/>
      <feColorMatrix in="SourceAlpha" values="0 0 0 0 0 0 0 0 0 0 0 0 0 0 0 0 0 0 127 0"/>
      <feOffset dx="2" dy="2"/>
      <feGaussianBlur stdDeviation="2"/>
      <feColorMatrix values="0 0 0 0 0.945833 0 0 0 0 0.990151 0 0 0 0 1 0 0 0 1 0"/>
      <feBlend in2="effect1_dropShadow" result="effect2_dropShadow"/>
      <feColorMatrix in="SourceAlpha" values="0 0 0 0 0 0 0 0 0 0 0 0 0 0 0 0 0 0 127 0"/>
      <feOffset/>
      <feGaussianBlur stdDeviation="4"/>
      <feColorMatrix values="0 0 0 0 0.945833 0 0 0 0 0.990151 0 0 0 0 1 0 0 0 1 0"/>
      <feBlend in2="effect2_dropShadow" result="effect3_dropShadow"/>
      <feBlend in="SourceGraphic" in2="effect3_dropShadow" result="shape"/>
    </filter>
    <filter id="filter1_ii" width="62" height="62" x="14" y="14" color-interpolation-filters="sRGB" filterUnits="userSpaceOnUse">
      <feFlood flood-opacity="0" result="BackgroundImageFix"/>
      <feBlend in="SourceGraphic" in2="BackgroundImageFix" result="shape"/>
      <feColorMatrix in="SourceAlpha" result="hardAlpha" values="0 0 0 0 0 0 0 0 0 0 0 0 0 0 0 0 0 0 127 0"/>
      <feOffset/>
      <feGaussianBlur stdDeviation="8"/>
      <feComposite in2="hardAlpha" k2="-1" k3="1" operator="arithmetic"/>
      <feColorMatrix values="0 0 0 0 0.945833 0 0 0 0 0.990151 0 0 0 0 1 0 0 0 1 0"/>
      <feBlend in2="shape" result="effect1_innerShadow"/>
      <feColorMatrix in="SourceAlpha" result="hardAlpha" values="0 0 0 0 0 0 0 0 0 0 0 0 0 0 0 0 0 0 127 0"/>
      <feOffset dx="2" dy="2"/>
      <feGaussianBlur stdDeviation="4"/>
      <feComposite in2="hardAlpha" k2="-1" k3="1" operator="arithmetic"/>
      <feColorMatrix values="0 0 0 0 0.945833 0 0 0 0 0.990151 0 0 0 0 1 0 0 0 1 0"/>
      <feBlend in2="effect1_innerShadow" result="effect2_innerShadow"/>
    </filter>
    <radialGradient id="paint0_radial" cx="0" cy="0" r="1" gradientTransform="rotate(90 0 44) scale(39.5)" gradientUnits="userSpaceOnUse">
      <stop stop-color="#F1FCFF" stop-opacity="0"/>
      <stop offset=".7" stop-color="#91C9D6"/>
    </radialGradient>
  </defs>
</svg>