<svg xmlns="http://www.w3.org/2000/svg" fill-rule="evenodd" stroke-linejoin="round" stroke-miterlimit="2" clip-rule="evenodd" viewBox="0 0 60 60">
  <defs/>
  <clipPath id="a">
    <circle cx="30" cy="30" r="30"/>
  </clipPath>
  <g fill="#fff" fill-opacity=".5" clip-path="url(#a)">
    <path d="M47.6 35.5a31 31 0 015-9c4.7-7.3 5.8 11.3 3 16.4-3 5.1-7 13.3-18.5 12.8-11.5-.4-11-3.3-6-2.7 5.2.6 6.2-2 6-3.8-.1-1.8 10-10.6 10.5-13.7zM19.1 9.1c-1 .1-2.2.5-3.3 1.1-6.8 3.6-8.3 8.6-8.4 11.6 0 .6 0 1.2.2 1.8-3.6 7.4-4.3 16.6 6.9 21l1.2.4 2.2.8h-.1C22 47.4 29 50 31.5 47c1.8-2 3.3-4.5 4.7-7 2.2-3.6 4.3-7.3 7.7-9.7.7-.5 1.4-1 2-1.8.3-.4 1.2-.8 3.1 0 2.4 1 3.7-17.8-13.1-20.6-10.2-1.7-14-1-16.8 1.2zM8.4 25.3c-.2.6-.3 1.3 0 2l.3.6c.9 2.1 1.6 3.8.2 5l-.2.2c-1.6 1.3-4.2 3.5 8.5 11.2l1.5.7c3 1.3 9.3 4 11 1 1.3-2.4 0-3.6-1.6-5.2-1.9-1.8-4.3-4-4.3-8.9 0-5.9 1.5-4.8 3.3-3.4 1 .7 2.2 1.6 3.2 1.3 1.4-.4 1.2-2 1-3.6-.2-1.8-.4-3.6 1.3-4.1 2-.6 3.8.7 5.5 2 1.2.8 2.2 1.5 3 1.3 1-.2 1.4-.8 1.7-1.2.3-.4.5-.7 1.1-.5.6.1 1 .9 1.6 1.6.8 1.1 1.7 2.3 2.6 1.5 1.4-1.4.3-15-11.1-18-6.5-1.7-9.6 1.1-11.6 4.4.2.7.3 1.6.2 2.5 0 1.5-.4 2.8-1.4 3.8-3.6 3.6-6.8 7.7-11.1 7.7-2.3 0-3.8-.7-4.7-1.9z"/>
    <path fill-rule="nonzero" d="M15 13.4a18 18 0 016.4-6c4.7.5 1.5 10.1-.5 13.4-2.6 4.3-11 5.7-11.3.8-.2-4.9 3.6-4.6 5.4-8.2zm38.3 30l.8-1.7c2-5-7.8-4-8 1.4-.3 4.6 4.8 4.3 7.2.3z"/>
  </g>
</svg>